<svg xmlns="http://www.w3.org/2000/svg" viewBox="0 0 320.51 127.86"><defs><style>.cls-1{fill:#ff5a79;}.cls-2{fill:#c17c7c;}</style></defs><g id="Layer_2" data-name="Layer 2"><g id="Layer_1-2" data-name="Layer 1"><path class="cls-1" d="M193.23,90.58c-3.38-8.93-14.34-4.92-15.35-.46-1.4-4.75-12.09-8.3-15.35.47-3.63,9.77,14.08,18.53,15.35,20C179.14,109.42,196.86,100.19,193.23,90.58Z"/><path class="cls-1" d="M35.92,65.07a1.16,1.16,0,0,1-.38-.59,2.07,2.07,0,0,1-.13-.83c0-.21.05-1.3.17-3.22s.25-4.3.38-7.1c0-.88.12-1.75.16-2.71.21-3.43.34-6.31.46-8.65v-.42a1,1,0,0,0,.05-.37v-.5l0,0v-.42c0-1,.08-1.51.08-1.67v-.09c-.12,0-1,.3-2.71.8S30.4,40.34,28.19,41l-5.81,1.76-2.71.87a3.4,3.4,0,0,0,0,.88c0,1.54.08,4.43.21,8.64.12,4,.16,6.69.16,8v1.09c0,.25,0,.41-.08.54a2.38,2.38,0,0,1-.12.33,1.66,1.66,0,0,1-.42.55,2.49,2.49,0,0,1-1,.29c-.51,0-1.3.08-2.43.08l-3.88,0c-1.25,0-2.3,0-3.09,0s-1.5,0-2,0a8.42,8.42,0,0,1-1.13,0,4.82,4.82,0,0,1-.54-.13,2.33,2.33,0,0,1-.3-.12l-.16-.09a1,1,0,0,1-.3-.29,1.75,1.75,0,0,1-.21-.63,7.66,7.66,0,0,1-.2-1.42c0-.62-.13-1.46-.17-2.59s-.13-2.54-.17-4.26-.12-3.84-.21-6.3-.16-5.43-.29-8.81c0-1.8-.12-3.76-.17-5.89L2.25,4.43c.21-.17.38-.34.51-.46a4,4,0,0,1,.58-.5A1,1,0,0,1,4,3.3c.16,0,.92.17,2.29.46s2.89.71,4.6,1.08L15.41,6c1.29.38,2.09.59,2.3.71a1.13,1.13,0,0,1,.41.25,1.11,1.11,0,0,1,.3.38c0,.21.12,1.88.25,5s.21,6.93.33,11.48c.13,3.81.21,7.15.29,9.94s.17,4.72.21,5.68v.51c.13,0,1.09-.3,2.8-.8s3.72-1.08,6-1.75,4.22-1.26,5.93-1.8,2.59-.79,2.72-.83.12-1.67.33-4.6.38-6.51.59-10.86.46-8,.67-11,.25-4.55.29-4.8a1.52,1.52,0,0,1,.58-.92,1.66,1.66,0,0,1,1-.29h.13a1.54,1.54,0,0,1,1.13.5,1.4,1.4,0,0,1,.5,1c0,.29-.17,3.47-.5,9.57s-.71,13-1.13,20.75-.84,14.49-1.17,20.38-.54,9-.58,9.48a2.14,2.14,0,0,1-.59,1.17,1.53,1.53,0,0,1-1,.42A1.7,1.7,0,0,1,35.92,65.07Z"/><path class="cls-1" d="M55.92,62c-1.76-.29-3.14-.54-4.18-.75a17.12,17.12,0,0,1-2.3-.5,2.92,2.92,0,0,1-1-.46,1.39,1.39,0,0,1-.5-.59c0-.08,0-.21-.09-.33a1.68,1.68,0,0,1,0-.46v-.29c.09-.38.84-3.1,2.22-8.11S53,39.72,54.83,33s3.51-12.69,5.05-18.16,2.51-8.81,2.89-10.11c.12-.38.25-.75.37-1.09s.25-.54.29-.66A1.45,1.45,0,0,1,64,2.55a4.15,4.15,0,0,1,1.12-.17h.67c1.21,0,3.26.08,6.23.25,2,.08,3.67.17,5.09.25s2.17.21,2.34.25a3.7,3.7,0,0,1,.71.54,2.27,2.27,0,0,1,.5.84c0,.21.46,2.59,1.25,7.06s1.67,10.06,2.8,16.7q3.89,23.12,3.89,24a1.79,1.79,0,0,1-.67,1,1.5,1.5,0,0,1-1,.38c-.72,0-1.3-.51-1.68-1.55,0-.25-.16-1-.37-2.21s-.5-2.63-.8-4.26-.45-3-.66-4.14a12.32,12.32,0,0,0-.34-1.67h0c-.17,0-.88,0-2.09.17s-2.59.29-4.05.46-2.75.37-3.88.5a15.19,15.19,0,0,0-1.84.25c0,.08-.38,1.09-.92,3.05S69,48.65,68.15,51.54s-1.5,5.3-2.09,7.3-1,3.09-1,3.3a1.32,1.32,0,0,1-.5.67,2.79,2.79,0,0,1-1.21.21A52.71,52.71,0,0,1,55.92,62Zm17-24.56,5.14-.58c1.21-.13,2.26-.25,3-.38a11.16,11.16,0,0,0,1.29-.21c0-.25-.16-1.46-.5-3.67s-.79-4.68-1.25-7.48-.88-5.26-1.25-7.39-.59-3.26-.63-3.38L75.5,25.73l-2,7.05c-.79,2.84-1.25,4.35-1.34,4.56v0c0,.08.09.12.25.12Z"/><path class="cls-1" d="M98.26,59.85l-.38-.13a1.72,1.72,0,0,1-.5-.42,2,2,0,0,1-.29-.79l0-.21a19.94,19.94,0,0,1,.42-2.84c.29-1.54.83-4.22,1.63-8.1S101,38,102.52,30.82Q105,19,106.57,11.4c1.09-5.09,1.71-7.81,1.84-8.1a1.22,1.22,0,0,1,.67-.63,6.27,6.27,0,0,1,1.63-.33c.75-.09,1.87-.17,3.42-.25l5.3-.17.63,0a1.15,1.15,0,0,1,.75.25,4.46,4.46,0,0,1,.71,1.34c.25.71.59,1.83,1,3.3s1,3.5,1.68,6.05c.25,1,.54,2,.83,3.09,1,3.8,1.88,6.93,2.59,9.48s1.09,3.84,1.13,4c0,0,.54-1,1.42-2.84s2-4.09,3.34-6.85c1-2.13,1.79-3.84,2.42-5.14s1.13-2.25,1.5-3,.63-1.21.84-1.51a1.13,1.13,0,0,1,.46-.5,1.45,1.45,0,0,1,.88-.29,2,2,0,0,1,1.67,1.25c.12.51.79,3,2,7.56s2.55,9.73,4.09,15.58,2.84,11.11,4,15.7,1.76,7,1.76,7.1a1.53,1.53,0,0,1-.38,1,1.78,1.78,0,0,1-.92.66l-.33,0a1.67,1.67,0,0,1-1-.34,1.92,1.92,0,0,1-.67-.92c-.12-.33-.71-2.46-1.75-6.39s-2.34-8.73-3.8-14.41-2.72-10.39-3.76-14.24-1.55-5.72-1.59-5.72-.46.92-1.21,2.47-1.67,3.42-2.71,5.68a1.39,1.39,0,0,0-.21.37l-2.13,4.47c-.59,1.21-1,2.21-1.42,3s-.71,1.38-.92,1.84-.42.75-.55,1a1.29,1.29,0,0,1-.33.41,2.47,2.47,0,0,1-.29.21h0a2.21,2.21,0,0,1-.76.13,2.35,2.35,0,0,1-1.54-.59,5.69,5.69,0,0,1-.67-1.75c-.33-1-.83-2.88-1.54-5.47-.25-.92-.46-1.76-.67-2.47s-.38-1.29-.5-1.79-.25-.92-.34-1.3a8.91,8.91,0,0,1-.25-.87,4.94,4.94,0,0,0-.12-.51,1.61,1.61,0,0,1-.09-.25s0,0-.08,0v0c0,.13-.42,1.88-1.09,5.18s-1.5,7.44-2.46,12.36l-.33,1.59c-.55,2.72-1,5-1.38,6.85s-.71,3.43-1,4.64-.46,2.13-.63,2.84a10.41,10.41,0,0,1-.42,1.5,2,2,0,0,1-.37.67.93.93,0,0,1-.34.25l0,0c-.21.08-1,.29-2.55.63s-3.21.71-5.17,1.08-3.76.8-5.35,1.09-2.55.46-2.76.46A2.28,2.28,0,0,1,98.26,59.85Z"/><path class="cls-1" d="M171.93,61.27a12.9,12.9,0,0,1-1.47-.09,8.75,8.75,0,0,1-1.08-.16,13.08,13.08,0,0,1-3.59-1.59,10.59,10.59,0,0,1-2.8-2.38,13.6,13.6,0,0,1-2.88-7.73l0-.62a1.73,1.73,0,0,1,.45-1.26,1.66,1.66,0,0,1,1.17-.46c1,0,1.55.59,1.76,1.76a19.28,19.28,0,0,0,1.13,4.17,6.49,6.49,0,0,0,1.62,2.43,8.39,8.39,0,0,0,5.73,2.42,7.84,7.84,0,0,0,5.47-2.34,6.83,6.83,0,0,0,2.13-4.84c0-2-.92-4.14-2.8-6.39a75.42,75.42,0,0,0-7-7q-5.64-5.07-7.14-7.31A20.7,20.7,0,0,1,158.39,18a16.47,16.47,0,0,1,1.22-6.14C162.11,6,166.08,2.25,171.55.63A22,22,0,0,1,176.81,0a20.18,20.18,0,0,1,6.64,1,14.92,14.92,0,0,1,4.85,3.09,13,13,0,0,1,3,5.05,17.89,17.89,0,0,1,.46,4.35,10,10,0,0,1,0,1.17,2,2,0,0,1-.71,1.25,1.73,1.73,0,0,1-1.17.5,1.64,1.64,0,0,1-.75-.21c-.38-.21-.63-.37-.71-.54a11.84,11.84,0,0,1-.12-2.38V13c0-3.76-1.55-6.48-4.64-8.06a3.89,3.89,0,0,0-1.75-.71,2.14,2.14,0,0,0-.8.2c-1.21.51-2.13,1.93-2.84,4.22a5.57,5.57,0,0,0-.33,1.46c-.09.55-.13,1.76-.21,3.64a17.42,17.42,0,0,0,2.13,8.43l4.76,7.81c.67,1.09,1.42,2.47,2.25,4.06a22.17,22.17,0,0,1,2.68,10.48,20,20,0,0,1-1,5.89,14.22,14.22,0,0,1-3.64,6,15.46,15.46,0,0,1-11.77,4.93Z"/><path class="cls-1" d="M212.64,63.52a.15.15,0,0,0-.12,0,.6.6,0,0,1-.3-.25,1.15,1.15,0,0,1-.2-.59,5.82,5.82,0,0,1-.21-1.33c-.05-.63-.13-1.46-.21-2.55s-.17-2.46-.25-4.18-.17-3.71-.3-6.18-.25-5.26-.41-8.56c0-1-.09-2-.13-3.05-.58-12.15-1-20.63-1.21-25.43,0-.92-.08-1.46-.08-1.67l-.13-1.59c-1.71,0-3,0-3.84.09-.67,0-1.3,0-1.84,0h-2a13.37,13.37,0,0,1-1.67-.09,1.79,1.79,0,0,1-.84-.21.91.91,0,0,1-.42-.45,1.86,1.86,0,0,1-.2-.8,1.66,1.66,0,0,1,.29-1,1.49,1.49,0,0,1,.75-.67c.21,0,1.71-.12,4.51-.21s6.1-.12,10.06-.21,7.86-.12,11.7-.16,6.81-.09,9-.09h1a14.16,14.16,0,0,1,1.75,0,1.62,1.62,0,0,1,1.17,1.26v.25a1.91,1.91,0,0,1-.25,1,1.89,1.89,0,0,1-.67.63c-.2,0-.83.08-1.92.12l-4.13.13L226,7.85c0,2,.12,5.93.25,11.82s.21,12.11.33,18.58.21,11.66.29,15.46c0,.79,0,1.38,0,1.75a3.2,3.2,0,0,1-.17.79,13.13,13.13,0,0,1-2,1.3c-1.21.71-2.63,1.59-4.34,2.55-2.38,1.38-4.09,2.29-5.06,2.8a5.81,5.81,0,0,1-2.13.75A1,1,0,0,1,212.64,63.52Z"/><path class="cls-1" d="M248.26,61.89a2,2,0,0,1-.88-.67,2.76,2.76,0,0,1-.41-1.16c0-.46-.17-3.3-.38-8.48s-.46-11.15-.71-18-.5-13-.71-18.54-.29-8.65-.29-9.32c0-1.25.33-2,.92-2.21,0-.13,1.75-.25,5.09-.38s9.32-.29,17.88-.54l3.88-.08h.54a16.08,16.08,0,0,1,1.72.08,1.68,1.68,0,0,1,.71.33,3.34,3.34,0,0,1,.37.67,1.34,1.34,0,0,1,.17.59.57.57,0,0,1,0,.25,1.74,1.74,0,0,1-.21.37,3.67,3.67,0,0,1-.33.51,1.08,1.08,0,0,1-.42.33,44.79,44.79,0,0,1-6.1.42l-4,.12a9.76,9.76,0,0,0-1.71.13V7.1c0,1,0,2.76.08,5.3s.09,5.18.17,8,.12,5.22.17,7.23.08,3,.12,3.17h.29l4.93-.17a4.55,4.55,0,0,1,.8,0l.5.13a1.64,1.64,0,0,1,1,1.46,1.75,1.75,0,0,1-.5,1.17,2.42,2.42,0,0,1-.42.33,2.31,2.31,0,0,1-.71.17c-.29,0-.75.09-1.34.13s-1.37.12-2.38.16c-.62,0-1.12,0-1.54.09-.21,0-.34,0-.46,0h-.17v.29q0,1.13.13,6c0,1.46,0,3.09.08,4.84l.25,11.9v.8c2.46,0,4.26-.09,5.47-.13.71,0,1.38,0,1.92,0h2.68c.2,0,.37,0,.5.08a1.85,1.85,0,0,1,.29.17,1.83,1.83,0,0,1,.71,1.42,1.67,1.67,0,0,1-.84,1.46,16.47,16.47,0,0,1-3.67.29q-3.45.14-12.41.34l-9.43.29A3.12,3.12,0,0,1,248.26,61.89Z"/><path class="cls-1" d="M303.14,44.52c0,.38,0,1,.08,2s.12,1.92.17,3c.12,1.67.2,2.92.2,3.72a3.45,3.45,0,0,1-.2,1.42,1.61,1.61,0,0,1-.67.54c-.17.08-.88.29-2.09.67s-2.67.83-4.39,1.29c-.79.21-1.5.46-2.21.67-1.17.33-2.13.63-2.92.84s-1.26.37-1.38.41a1.58,1.58,0,0,1-.63.13,2,2,0,0,1-1.33-.54l-.46-.38c-.13-2-.21-4.09-.3-6.06Q284.7,9.74,284.72,4.68V4.43a2.75,2.75,0,0,1,.46-1,1.88,1.88,0,0,1,.71-.63c.12,0,.5-.13,1-.25s1.17-.21,1.88-.34a23.8,23.8,0,0,1,2.84-.33c.88,0,2.34,0,4.3,0h3.18l2,.12c.54,0,1.08.13,1.71.25q9.78,1.89,14.41,7.15A16.12,16.12,0,0,1,318.88,12,12.23,12.23,0,0,1,320,14.74a14.6,14.6,0,0,1,.42,3.64,16.73,16.73,0,0,1-.21,2.54c-1.3,6.48-5.77,12.24-13.41,17.38l-2.34,1.54,1.13,1.25c.33.38.75.8,1.25,1.3s1.38,1.5,2.47,2.67l4.59,5c4.39,4.72,6.56,7.23,6.52,7.44l.08.46a2.14,2.14,0,0,1-.21.87,1.24,1.24,0,0,1-.5.59,1.64,1.64,0,0,1-.79.16,2.12,2.12,0,0,1-1.17-.33c-.17-.13-1-1-2.38-2.51s-3.14-3.34-5.18-5.51l-7.1-7.68,0,.25ZM304,36c.42-.25.92-.58,1.5-1s1.09-.75,1.55-1.13a32.66,32.66,0,0,0,3.55-3.13,27.67,27.67,0,0,0,3-3.3,19.17,19.17,0,0,0,1.88-3.09,13.54,13.54,0,0,0,1.21-3,13.43,13.43,0,0,0,.34-3,10.79,10.79,0,0,0-.42-3.22c-1.84-4.89-6.51-8-14.07-9.44l-1.92-.29,2,31.11c0,.09,0,.13.13.13A4,4,0,0,0,304,36Z"/><path class="cls-2" d="M10.41,116.6c-4.76-.62-8.63-5-10.06-11.14a27.09,27.09,0,0,1-.35-4.2,25.17,25.17,0,0,1,.52-6.18c.74-3.28,3-7,5.1-8.67a9.82,9.82,0,0,1,6-2.3c5-.08,9.77,4.21,11.36,11.45a6.64,6.64,0,0,1,.18,1.31,3.19,3.19,0,0,1-.73,1.94A2.93,2.93,0,0,1,20,100a3.46,3.46,0,0,1-2.62-1.14,8.51,8.51,0,0,1-.73-2.18c-.87-3.32-2.72-5.88-4.44-6.16l-.38,0c-1.49,0-3.12,1.48-4.19,3.77a11.56,11.56,0,0,0-1.21,6v1.06a14.22,14.22,0,0,0,.67,4.35c1.19,3,2.8,4.61,4.44,4.58a2.82,2.82,0,0,0,1.68-.61,9.51,9.51,0,0,0,2.85-4,5.2,5.2,0,0,1,1.09-1.8,2.53,2.53,0,0,1,1.89-.8,3.38,3.38,0,0,1,.57-.07,2,2,0,0,1,1.34.51,3.28,3.28,0,0,1,1.59,2.62l0,.34a25.11,25.11,0,0,1-1.74,4.27c-1.49,2.48-4.46,5-6.58,5.55a13.37,13.37,0,0,1-2.91.35Z"/><path class="cls-2" d="M62.77,115.63a3.07,3.07,0,0,1-1.45-1.35,3.54,3.54,0,0,1-.47-2.27l0-7.51c-3.65,5.64-7.41,8.93-11.74,9.65a8.71,8.71,0,0,1-1.33.14c-4.82.08-8.28-4.42-8.51-11.24a17.38,17.38,0,0,1,1.13-7.15c2.31-6.9,8.13-11.9,13.68-12a9.89,9.89,0,0,1,1.33.08,10.6,10.6,0,0,1,4.76,1.83l.7.49v-.72a3.33,3.33,0,0,1,1.58-2.49A2.92,2.92,0,0,1,64,82.68a3.68,3.68,0,0,1,1.95.56c1.21.89,1.21.79,1.37,11.57.08,5.33.08,11.87,0,14.43,0,5.45-.14,5.55-1.72,6.35a3.1,3.1,0,0,1-1.39.46A3.38,3.38,0,0,1,62.77,115.63ZM50,107.13c1.7-.93,4-3.61,5.52-6.22A53.73,53.73,0,0,0,58,95.73a4.93,4.93,0,0,1,.49-1.19A5.18,5.18,0,0,0,59,93.16a4.91,4.91,0,0,0-2.16-2.56,3.85,3.85,0,0,0-2-.59,4.42,4.42,0,0,0-1.33.24c-3.41,1-6.56,5-7.41,9.21a15.38,15.38,0,0,0-.31,3.18,8.37,8.37,0,0,0,1.25,4.84,1.14,1.14,0,0,0,.92.36A4.33,4.33,0,0,0,50,107.13Z"/><path class="cls-2" d="M88.1,116.1A3.63,3.63,0,0,1,86.88,115l-.42-.78-.23-15.51-.14-15.46c1-1.69,1.27-2.6,3.14-2.63l.35,0a3.51,3.51,0,0,1,1.94.56c.45.37.61.49,1.08.48l1.14-.11a20.49,20.49,0,0,1,3-.26,9.71,9.71,0,0,1,3,.36,6.51,6.51,0,0,1,4.18,3.9,21.24,21.24,0,0,1,.75,5.62c0,.69,0,1.38,0,2.09,0,3-.45,4.06-1.84,4.67a3.32,3.32,0,0,1-1.45.46,3.49,3.49,0,0,1-3.11-2.38,31.08,31.08,0,0,1-.15-3.55c0-.5,0-1,0-1.5A19.41,19.41,0,0,0,98,88.47l-.11-1.09-.93-.18-2.63,0-1.58.12.09,6.23c0,3.37,0,9.38,0,13.43,0,7,0,7.42-.39,7.92a3.68,3.68,0,0,1-2.83,1.51A3,3,0,0,1,88.1,116.1Z"/><path class="cls-2" d="M134.31,115.26a14.59,14.59,0,0,1-2.45-.84c-5.24-2.51-8.74-9.5-8.84-16.91a25,25,0,0,1,.2-3.56c.54-3.75,2.29-8,4.28-10.13a11.23,11.23,0,0,1,8-3.82,9.2,9.2,0,0,1,2.8.39,13.29,13.29,0,0,1,6.83,5.35,21.13,21.13,0,0,1,3.31,9.3,2.43,2.43,0,0,1-.05.72c-.17,1.09-1.27,2.11-2.88,2.63a10.92,10.92,0,0,1-3.23.3l-12.84,0c.82,4.13,1.33,6.37,3.52,8.64a5.29,5.29,0,0,0,3.26,1.73c2.12,0,3.68-.18,4.92-3.84.79-2.38.88-2.57,1.79-3.21a2.47,2.47,0,0,1,1.8-.49,3,3,0,0,1,3,3.16l0,.44c-.27,3.06-1.8,4.79-4.39,7.2a10.43,10.43,0,0,1-7.12,3A11,11,0,0,1,134.31,115.26Zm5-27.16a5.34,5.34,0,0,0-4.21-1.71,4.44,4.44,0,0,0-3.4,2,14.8,14.8,0,0,0-1.94,3.74l-.12.5,9.32-.2,3,0A14.1,14.1,0,0,0,139.27,88.1Z"/><path class="cls-2" d="M227.29,113.19a3,3,0,0,1-1.45-1.35,3.44,3.44,0,0,1-.48-2.26l0-7.51c-3.66,5.63-7.42,8.92-11.75,9.64a10,10,0,0,1-1.33.15c-4.82.07-8.28-4.43-8.51-11.25A17.4,17.4,0,0,1,205,93.46c2.31-6.89,8.14-11.9,13.68-12a10,10,0,0,1,1.34.08,10.52,10.52,0,0,1,4.75,1.83l.7.49v-.72A3.35,3.35,0,0,1,227,80.67a2.87,2.87,0,0,1,1.49-.43,3.67,3.67,0,0,1,1.94.56c1.22.89,1.22.79,1.38,11.57.08,5.33.08,11.87,0,14.43,0,5.45-.14,5.55-1.71,6.35a3.18,3.18,0,0,1-1.39.46A3.08,3.08,0,0,1,227.29,113.19Zm-12.81-8.5c1.69-.93,4-3.61,5.52-6.22a53.16,53.16,0,0,0,2.55-5.18A5.1,5.1,0,0,1,223,92.1a5.33,5.33,0,0,0,.49-1.38,5,5,0,0,0-2.16-2.55,3.78,3.78,0,0,0-2-.6,4.88,4.88,0,0,0-1.33.24c-3.41,1-6.55,5-7.41,9.21a14.71,14.71,0,0,0-.3,3.18c0,2.09.5,4,1.24,4.84a1.21,1.21,0,0,0,.93.37A4.4,4.4,0,0,0,214.48,104.69Z"/><path class="cls-2" d="M252.38,127.69a2.77,2.77,0,0,1-1.64-1.66,18,18,0,0,1-.21-3.65c0-2.61,0-7.1-.06-14.86-.05-9.78,0-20.25.06-23.25l.11-5.51c1-1.26,1.56-2,3-2a3.49,3.49,0,0,1,2.81,1.45c.32.37.42.87.54,2l0,1.5c2.2-1.41,3.49-2.24,6.08-2.28a8.2,8.2,0,0,1,2.32.28,9.11,9.11,0,0,1,5,2.79,12.87,12.87,0,0,1,3.51,5.38,22,22,0,0,1,1.37,7.3,26,26,0,0,1-1,7.15c-1.41,5.25-5.19,9.45-9.29,10.61a11.5,11.5,0,0,1-2.56.38,9.41,9.41,0,0,1-4.11-1,6.93,6.93,0,0,0-1.41-.67c0,.1.05,3.15,0,7,0,6.41,0,6.91-.39,7.64a4.43,4.43,0,0,1-1,1,3.91,3.91,0,0,1-2.05.53A3.17,3.17,0,0,1,252.38,127.69Zm12-21.46c1.6-.9,3.27-3.61,4-6.58a17.57,17.57,0,0,0,.38-4.21,15.18,15.18,0,0,0-.5-4,9.3,9.3,0,0,0-2.06-4.12,3.48,3.48,0,0,0-2.75-1.42c-2.41,0-4.81,2.81-5.95,7.19a17.35,17.35,0,0,0-.32,4.28,12.26,12.26,0,0,0,1.5,6.49,5.94,5.94,0,0,0,2.86,2.92,2.49,2.49,0,0,0,.92.14A3.61,3.61,0,0,0,264.34,106.23Z"/><path class="cls-2" d="M295.45,127.05a2.8,2.8,0,0,1-1.64-1.66,18,18,0,0,1-.21-3.64c0-2.62,0-7.11-.06-14.87-.05-9.78,0-20.25.07-23.24l.11-5.52c1-1.26,1.55-2,3-2a3.47,3.47,0,0,1,2.81,1.45c.32.37.43.87.54,2l0,1.5c2.2-1.41,3.49-2.24,6.09-2.27a8.28,8.28,0,0,1,2.32.27,9.1,9.1,0,0,1,5,2.8,12.85,12.85,0,0,1,3.5,5.37,22.28,22.28,0,0,1,1.38,7.3,26.34,26.34,0,0,1-1,7.15c-1.41,5.26-5.18,9.46-9.29,10.61a11.5,11.5,0,0,1-2.56.38,9.44,9.44,0,0,1-4.11-1,6.91,6.91,0,0,0-1.4-.66c0,.09,0,3.14,0,7,0,6.42,0,6.92-.4,7.64a4.06,4.06,0,0,1-1,1,3.82,3.82,0,0,1-2,.53A3.21,3.21,0,0,1,295.45,127.05Zm12-21.46c1.6-.9,3.28-3.6,4-6.58a18.06,18.06,0,0,0,.39-4.21,15.56,15.56,0,0,0-.51-4,9.1,9.1,0,0,0-2.06-4.11,3.46,3.46,0,0,0-2.74-1.43c-2.41,0-4.81,2.82-5.95,7.19a16.87,16.87,0,0,0-.32,4.28,12.23,12.23,0,0,0,1.49,6.49,5.91,5.91,0,0,0,2.87,2.92,2.43,2.43,0,0,0,.92.14A3.55,3.55,0,0,0,307.41,105.59Z"/></g></g></svg>